<svg xmlns="http://www.w3.org/2000/svg" width="1200" height="700" viewBox="0 0 1200 700">
  <defs>
    <linearGradient id="bg" x1="0%" y1="0%" x2="100%" y2="100%">
      <stop offset="0%" stop-color="#f4f1e8"/>
      <stop offset="100%" stop-color="#e2ddd0"/>
    </linearGradient>
    <linearGradient id="board" x1="0%" y1="0%" x2="100%" y2="100%">
      <stop offset="0%" stop-color="#1f4d3c"/>
      <stop offset="100%" stop-color="#16372c"/>
    </linearGradient>
    <filter id="shadow" x="-20%" y="-20%" width="140%" height="140%">
      <feDropShadow dx="0" dy="16" stdDeviation="18" flood-color="#23342d" flood-opacity="0.28"/>
    </filter>
  </defs>
  <rect width="1200" height="700" fill="url(#bg)"/>
  <rect x="120" y="70" width="960" height="560" rx="24" fill="url(#board)" stroke="#112a22" stroke-width="8" filter="url(#shadow)"/>
  <g stroke="#7fbe9e" stroke-width="4" opacity="0.45" fill="none">
    <path d="M220 135 H420 V210 H470"/>
    <path d="M690 210 H770"/>
    <path d="M560 350 V430"/>
    <path d="M330 430 H500"/>
    <path d="M750 430 H820"/>
    <path d="M570 240 V325 H825"/>
    <path d="M285 260 V360"/>
  </g>
  <g fill="#d9ece1" opacity="0.18">
    <circle cx="255" cy="160" r="7"/>
    <circle cx="305" cy="160" r="7"/>
    <circle cx="570" cy="150" r="7"/>
    <circle cx="620" cy="150" r="7"/>
    <circle cx="790" cy="155" r="7"/>
    <circle cx="845" cy="155" r="7"/>
    <circle cx="255" cy="405" r="7"/>
    <circle cx="600" cy="445" r="7"/>
    <circle cx="875" cy="425" r="7"/>
  </g>
  <rect x="170" y="120" width="220" height="140" rx="18" fill="#d7b66a" stroke="#c59b3e" stroke-width="4"/>
  <text x="195" y="182" font-family="Helvetica, Arial, sans-serif" font-size="34" font-weight="700" fill="#17362b">Power Stage</text>
  <text x="195" y="218" font-family="Helvetica, Arial, sans-serif" font-size="20" fill="#17362b">MPPT, Buck, eFuse</text>
  <rect x="435" y="130" width="260" height="220" rx="22" fill="#9fc3b1" stroke="#6d9a84" stroke-width="4"/>
  <text x="498" y="214" font-family="Helvetica, Arial, sans-serif" font-size="42" font-weight="700" fill="#17362b">STM32F407</text>
  <text x="485" y="250" font-family="Helvetica, Arial, sans-serif" font-size="22" fill="#17362b">Flash, clocks, SWD</text>
  <text x="476" y="282" font-family="Helvetica, Arial, sans-serif" font-size="22" fill="#17362b">Sensor and control hub</text>
  <rect x="740" y="120" width="180" height="120" rx="18" fill="#8fc0d8" stroke="#5e9dbd" stroke-width="4"/>
  <text x="783" y="186" font-family="Helvetica, Arial, sans-serif" font-size="34" font-weight="700" fill="#17362b">LoRa</text>
  <text x="775" y="216" font-family="Helvetica, Arial, sans-serif" font-size="20" fill="#17362b">RFM95W + SMA</text>
  <rect x="930" y="142" width="74" height="20" rx="6" fill="#d9d9d9"/>
  <text x="926" y="130" font-family="Helvetica, Arial, sans-serif" font-size="18" fill="#17362b">Edge SMA</text>
  <rect x="195" y="360" width="240" height="150" rx="18" fill="#d8a48f" stroke="#b2745f" stroke-width="4"/>
  <text x="217" y="430" font-family="Helvetica, Arial, sans-serif" font-size="34" font-weight="700" fill="#17362b">Analog AFE</text>
  <text x="222" y="465" font-family="Helvetica, Arial, sans-serif" font-size="20" fill="#17362b">PIR and thermistor path</text>
  <rect x="500" y="400" width="250" height="140" rx="18" fill="#d96c4d" stroke="#bb4f34" stroke-width="4"/>
  <text x="535" y="470" font-family="Helvetica, Arial, sans-serif" font-size="34" font-weight="700" fill="#fff7ef">Motor Drivers</text>
  <text x="560" y="502" font-family="Helvetica, Arial, sans-serif" font-size="20" fill="#fff7ef">Dual DRV8871</text>
  <rect x="820" y="390" width="180" height="130" rx="18" fill="#efe7cf" stroke="#d5c69d" stroke-width="4"/>
  <text x="858" y="452" font-family="Helvetica, Arial, sans-serif" font-size="30" font-weight="700" fill="#17362b">CM4 I/O</text>
  <text x="842" y="482" font-family="Helvetica, Arial, sans-serif" font-size="19" fill="#17362b">UART, I2C, USB-C</text>
  <g fill="#d9d9d9" stroke="#c8c8c8" stroke-width="3">
    <circle cx="155" cy="105" r="16"/>
    <circle cx="1045" cy="105" r="16"/>
    <circle cx="155" cy="595" r="16"/>
    <circle cx="1045" cy="595" r="16"/>
  </g>
  <text x="120" y="655" font-family="Helvetica, Arial, sans-serif" font-size="26" fill="#17362b">Forest Surveillance Rover PCB system overview</text>
</svg>
